<svg xmlns="http://www.w3.org/2000/svg" preserveAspectRatio="xMidYMid" width="21.062" height="21.063"><path d="M3.395 11.511a1.862 1.862 0 0 0-2.065.381L.186 13.036a.618.618 0 0 0 .119.966l3.626 2.176-1.39 1.39a.617.617 0 0 0 .873.873l1.413-1.414 2.246 3.745a.617.617 0 0 0 .965.119l1.144-1.145a1.862 1.862 0 0 0 .381-2.065l-.936-2.091 3.041-2.774 5.878 7.062a.617.617 0 0 0 .91.041 3.953 3.953 0 0 0 .696-4.651l-.759-1.427.656-.656a1.85 1.85 0 0 0 0-2.618 1.847 1.847 0 0 0-2.466-.135l-.751-1.413 4.245-3.871A2.94 2.94 0 0 0 20.201.87a2.939 2.939 0 0 0-4.277.124L12.055 5.24l-1.533-.815a1.85 1.85 0 0 0-2.726-2.498l-.685.685-1.304-.693a3.95 3.95 0 0 0-4.65.696.618.618 0 0 0 .042.911l7.059 5.879-2.773 3.042-2.09-.936zm13.91-.072a.616.616 0 1 1 .872.873l-.389.389-.605-1.14.122-.122zm.757 4.408a2.705 2.705 0 0 1-.055 2.655l-5.426-6.518 2.31-2.107 3.171 5.97zM8.668 2.8a.616.616 0 1 1 .872.872l-.151.151-1.139-.605.418-.418zm-6.094.265a2.703 2.703 0 0 1 2.654-.056l5.968 3.172L9.09 8.492 2.574 3.065zm3.523 10.543L16.844 1.817a1.707 1.707 0 1 1 2.41 2.411L7.466 14.978a.618.618 0 0 0-.147.708l1.118 2.499a.62.62 0 0 1-.127.688l-.586.586-1.998-3.332.253-.253a.616.616 0 1 0-.873-.872l-.276.276-3.213-1.928.586-.586a.62.62 0 0 1 .688-.126l2.498 1.118a.618.618 0 0 0 .708-.148z" fill="#28284b" fill-rule="evenodd"/></svg>